<svg width="1592" height="968" viewBox="0 0 1592 968" fill="none" xmlns="http://www.w3.org/2000/svg">
<path d="M27.0467 356.268C88.423 285.781 209.629 376.97 385.25 337.061C537.359 302.479 546.11 210.622 667.642 215.177C756.431 218.487 853.183 269.755 906.356 359.072C964.997 457.551 943.68 557.81 937.696 582.139C910.983 691.263 831.698 748.826 803.728 768.487C688.488 849.44 559.173 835.254 497.136 828.479C264.1 802.957 14.6139 636.583 3.50533 455.701C2.02898 432.021 -0.658009 388.098 27.0467 356.268Z" fill="url(#paint0_linear)"/>
<g opacity="0.3">
<mask id="mask0" mask-type="alpha" maskUnits="userSpaceOnUse" x="1460" y="546" width="11" height="11">
<path d="M1465.23 556.425C1468.12 556.425 1470.46 554.091 1470.46 551.212C1470.46 548.334 1468.12 546 1465.23 546C1462.34 546 1460 548.334 1460 551.212C1460 554.091 1462.34 556.425 1465.23 556.425Z" fill="url(#paint1_linear)"/>
</mask>
<g mask="url(#mask0)">
<path d="M1465.23 556.425C1468.12 556.425 1470.46 554.091 1470.46 551.212C1470.46 548.334 1468.12 546 1465.23 546C1462.34 546 1460 548.334 1460 551.212C1460 554.091 1462.34 556.425 1465.23 556.425Z" fill="url(#paint2_linear)"/>
</g>
<mask id="mask1" mask-type="alpha" maskUnits="userSpaceOnUse" x="1490" y="546" width="11" height="11">
<path d="M1495.51 556.425C1498.4 556.425 1500.74 554.091 1500.74 551.212C1500.74 548.334 1498.4 546 1495.51 546C1492.62 546 1490.28 548.334 1490.28 551.212C1490.28 554.091 1492.62 556.425 1495.51 556.425Z" fill="url(#paint3_linear)"/>
</mask>
<g mask="url(#mask1)">
<path d="M1495.51 556.425C1498.4 556.425 1500.74 554.091 1500.74 551.212C1500.74 548.334 1498.4 546 1495.51 546C1492.62 546 1490.28 548.334 1490.28 551.212C1490.28 554.091 1492.62 556.425 1495.51 556.425Z" fill="url(#paint4_linear)"/>
</g>
<mask id="mask2" mask-type="alpha" maskUnits="userSpaceOnUse" x="1520" y="546" width="12" height="11">
<path d="M1525.79 556.425C1528.68 556.425 1531.02 554.091 1531.02 551.212C1531.02 548.334 1528.68 546 1525.79 546C1522.9 546 1520.56 548.334 1520.56 551.212C1520.56 554.091 1522.9 556.425 1525.79 556.425Z" fill="url(#paint5_linear)"/>
</mask>
<g mask="url(#mask2)">
<path d="M1525.79 556.425C1528.68 556.425 1531.02 554.091 1531.02 551.212C1531.02 548.334 1528.68 546 1525.79 546C1522.9 546 1520.56 548.334 1520.56 551.212C1520.56 554.091 1522.9 556.425 1525.79 556.425Z" fill="url(#paint6_linear)"/>
</g>
<mask id="mask3" mask-type="alpha" maskUnits="userSpaceOnUse" x="1550" y="546" width="12" height="11">
<path d="M1556.07 556.425C1558.96 556.425 1561.3 554.091 1561.3 551.212C1561.3 548.334 1558.96 546 1556.07 546C1553.18 546 1550.84 548.334 1550.84 551.212C1550.84 554.091 1553.18 556.425 1556.07 556.425Z" fill="url(#paint7_linear)"/>
</mask>
<g mask="url(#mask3)">
<path d="M1556.07 556.425C1558.96 556.425 1561.3 554.091 1561.3 551.212C1561.3 548.334 1558.96 546 1556.07 546C1553.18 546 1550.84 548.334 1550.84 551.212C1550.84 554.091 1553.18 556.425 1556.07 556.425Z" fill="url(#paint8_linear)"/>
</g>
<mask id="mask4" mask-type="alpha" maskUnits="userSpaceOnUse" x="1581" y="546" width="11" height="11">
<path d="M1586.35 556.425C1589.24 556.425 1591.58 554.091 1591.58 551.212C1591.58 548.334 1589.24 546 1586.35 546C1583.47 546 1581.12 548.334 1581.12 551.212C1581.12 554.091 1583.47 556.425 1586.35 556.425Z" fill="url(#paint9_linear)"/>
</mask>
<g mask="url(#mask4)">
<path d="M1586.35 556.425C1589.24 556.425 1591.58 554.091 1591.58 551.212C1591.58 548.334 1589.24 546 1586.35 546C1583.47 546 1581.12 548.334 1581.12 551.212C1581.12 554.091 1583.47 556.425 1586.35 556.425Z" fill="url(#paint10_linear)"/>
</g>
<mask id="mask5" mask-type="alpha" maskUnits="userSpaceOnUse" x="1460" y="572" width="11" height="11">
<path d="M1465.23 582.596C1468.12 582.596 1470.46 580.262 1470.46 577.383C1470.46 574.505 1468.12 572.171 1465.23 572.171C1462.34 572.171 1460 574.505 1460 577.383C1460 580.262 1462.34 582.596 1465.23 582.596Z" fill="url(#paint11_linear)"/>
</mask>
<g mask="url(#mask5)">
<path d="M1465.23 582.596C1468.12 582.596 1470.46 580.262 1470.46 577.383C1470.46 574.505 1468.12 572.171 1465.23 572.171C1462.34 572.171 1460 574.505 1460 577.383C1460 580.262 1462.34 582.596 1465.23 582.596Z" fill="url(#paint12_linear)"/>
</g>
<mask id="mask6" mask-type="alpha" maskUnits="userSpaceOnUse" x="1490" y="572" width="11" height="11">
<path d="M1495.51 582.596C1498.4 582.596 1500.74 580.262 1500.74 577.383C1500.74 574.505 1498.4 572.171 1495.51 572.171C1492.62 572.171 1490.28 574.505 1490.28 577.383C1490.28 580.262 1492.62 582.596 1495.51 582.596Z" fill="url(#paint13_linear)"/>
</mask>
<g mask="url(#mask6)">
<path d="M1495.51 582.596C1498.4 582.596 1500.74 580.262 1500.74 577.383C1500.74 574.505 1498.4 572.171 1495.51 572.171C1492.62 572.171 1490.28 574.505 1490.28 577.383C1490.28 580.262 1492.62 582.596 1495.51 582.596Z" fill="url(#paint14_linear)"/>
</g>
<mask id="mask7" mask-type="alpha" maskUnits="userSpaceOnUse" x="1520" y="572" width="12" height="11">
<path d="M1525.79 582.596C1528.68 582.596 1531.02 580.262 1531.02 577.383C1531.02 574.505 1528.68 572.171 1525.79 572.171C1522.9 572.171 1520.56 574.505 1520.56 577.383C1520.56 580.262 1522.9 582.596 1525.79 582.596Z" fill="url(#paint15_linear)"/>
</mask>
<g mask="url(#mask7)">
<path d="M1525.79 582.596C1528.68 582.596 1531.02 580.262 1531.02 577.383C1531.02 574.505 1528.68 572.171 1525.79 572.171C1522.9 572.171 1520.56 574.505 1520.56 577.383C1520.56 580.262 1522.9 582.596 1525.79 582.596Z" fill="url(#paint16_linear)"/>
</g>
<mask id="mask8" mask-type="alpha" maskUnits="userSpaceOnUse" x="1550" y="572" width="12" height="11">
<path d="M1556.07 582.596C1558.96 582.596 1561.3 580.262 1561.3 577.383C1561.3 574.505 1558.96 572.171 1556.07 572.171C1553.18 572.171 1550.84 574.505 1550.84 577.383C1550.84 580.262 1553.18 582.596 1556.07 582.596Z" fill="url(#paint17_linear)"/>
</mask>
<g mask="url(#mask8)">
<path d="M1556.07 582.596C1558.96 582.596 1561.3 580.262 1561.3 577.383C1561.3 574.505 1558.96 572.171 1556.07 572.171C1553.18 572.171 1550.84 574.505 1550.84 577.383C1550.84 580.262 1553.18 582.596 1556.07 582.596Z" fill="url(#paint18_linear)"/>
</g>
<mask id="mask9" mask-type="alpha" maskUnits="userSpaceOnUse" x="1581" y="572" width="11" height="11">
<path d="M1586.35 582.596C1589.24 582.596 1591.58 580.262 1591.58 577.383C1591.58 574.505 1589.24 572.171 1586.35 572.171C1583.47 572.171 1581.12 574.505 1581.12 577.383C1581.12 580.262 1583.47 582.596 1586.35 582.596Z" fill="url(#paint19_linear)"/>
</mask>
<g mask="url(#mask9)">
<path d="M1586.35 582.596C1589.24 582.596 1591.58 580.262 1591.58 577.383C1591.58 574.505 1589.24 572.171 1586.35 572.171C1583.47 572.171 1581.12 574.505 1581.12 577.383C1581.12 580.262 1583.47 582.596 1586.35 582.596Z" fill="url(#paint20_linear)"/>
</g>
<mask id="mask10" mask-type="alpha" maskUnits="userSpaceOnUse" x="1460" y="598" width="11" height="11">
<path d="M1465.23 608.712C1468.12 608.712 1470.46 606.379 1470.46 603.5C1470.46 600.621 1468.12 598.287 1465.23 598.287C1462.34 598.287 1460 600.621 1460 603.5C1460 606.379 1462.34 608.712 1465.23 608.712Z" fill="url(#paint21_linear)"/>
</mask>
<g mask="url(#mask10)">
<path d="M1465.23 608.712C1468.12 608.712 1470.46 606.379 1470.46 603.5C1470.46 600.621 1468.12 598.287 1465.23 598.287C1462.34 598.287 1460 600.621 1460 603.5C1460 606.379 1462.34 608.712 1465.23 608.712Z" fill="url(#paint22_linear)"/>
</g>
<mask id="mask11" mask-type="alpha" maskUnits="userSpaceOnUse" x="1490" y="598" width="11" height="11">
<path d="M1495.51 608.712C1498.4 608.712 1500.74 606.379 1500.74 603.5C1500.74 600.621 1498.4 598.287 1495.51 598.287C1492.62 598.287 1490.28 600.621 1490.28 603.5C1490.28 606.379 1492.62 608.712 1495.51 608.712Z" fill="url(#paint23_linear)"/>
</mask>
<g mask="url(#mask11)">
<path d="M1495.51 608.712C1498.4 608.712 1500.74 606.379 1500.74 603.5C1500.74 600.621 1498.4 598.287 1495.51 598.287C1492.62 598.287 1490.28 600.621 1490.28 603.5C1490.28 606.379 1492.62 608.712 1495.51 608.712Z" fill="url(#paint24_linear)"/>
</g>
<mask id="mask12" mask-type="alpha" maskUnits="userSpaceOnUse" x="1520" y="598" width="12" height="11">
<path d="M1525.79 608.712C1528.68 608.712 1531.02 606.379 1531.02 603.5C1531.02 600.621 1528.68 598.287 1525.79 598.287C1522.9 598.287 1520.56 600.621 1520.56 603.5C1520.56 606.379 1522.9 608.712 1525.79 608.712Z" fill="url(#paint25_linear)"/>
</mask>
<g mask="url(#mask12)">
<path d="M1525.79 608.712C1528.68 608.712 1531.02 606.379 1531.02 603.5C1531.02 600.621 1528.68 598.287 1525.79 598.287C1522.9 598.287 1520.56 600.621 1520.56 603.5C1520.56 606.379 1522.9 608.712 1525.79 608.712Z" fill="url(#paint26_linear)"/>
</g>
<mask id="mask13" mask-type="alpha" maskUnits="userSpaceOnUse" x="1550" y="598" width="12" height="11">
<path d="M1556.07 608.712C1558.96 608.712 1561.3 606.379 1561.3 603.5C1561.3 600.621 1558.96 598.287 1556.07 598.287C1553.18 598.287 1550.84 600.621 1550.84 603.5C1550.84 606.379 1553.18 608.712 1556.07 608.712Z" fill="url(#paint27_linear)"/>
</mask>
<g mask="url(#mask13)">
<path d="M1556.07 608.712C1558.96 608.712 1561.3 606.379 1561.3 603.5C1561.3 600.621 1558.96 598.287 1556.07 598.287C1553.18 598.287 1550.84 600.621 1550.84 603.5C1550.84 606.379 1553.18 608.712 1556.07 608.712Z" fill="url(#paint28_linear)"/>
</g>
<mask id="mask14" mask-type="alpha" maskUnits="userSpaceOnUse" x="1581" y="598" width="11" height="11">
<path d="M1586.35 608.712C1589.24 608.712 1591.58 606.379 1591.58 603.5C1591.58 600.621 1589.24 598.287 1586.35 598.287C1583.47 598.287 1581.12 600.621 1581.12 603.5C1581.12 606.379 1583.47 608.712 1586.35 608.712Z" fill="url(#paint29_linear)"/>
</mask>
<g mask="url(#mask14)">
<path d="M1586.35 608.712C1589.24 608.712 1591.58 606.379 1591.58 603.5C1591.58 600.621 1589.24 598.287 1586.35 598.287C1583.47 598.287 1581.12 600.621 1581.12 603.5C1581.12 606.379 1583.47 608.712 1586.35 608.712Z" fill="url(#paint30_linear)"/>
</g>
<mask id="mask15" mask-type="alpha" maskUnits="userSpaceOnUse" x="1460" y="624" width="11" height="11">
<path d="M1465.23 634.883C1468.12 634.883 1470.46 632.55 1470.46 629.671C1470.46 626.792 1468.12 624.458 1465.23 624.458C1462.34 624.458 1460 626.792 1460 629.671C1460 632.55 1462.34 634.883 1465.23 634.883Z" fill="url(#paint31_linear)"/>
</mask>
<g mask="url(#mask15)">
<path d="M1465.23 634.883C1468.12 634.883 1470.46 632.55 1470.46 629.671C1470.46 626.792 1468.12 624.458 1465.23 624.458C1462.34 624.458 1460 626.792 1460 629.671C1460 632.55 1462.34 634.883 1465.23 634.883Z" fill="url(#paint32_linear)"/>
</g>
<mask id="mask16" mask-type="alpha" maskUnits="userSpaceOnUse" x="1490" y="624" width="11" height="11">
<path d="M1495.51 634.883C1498.4 634.883 1500.74 632.55 1500.74 629.671C1500.74 626.792 1498.4 624.458 1495.51 624.458C1492.62 624.458 1490.28 626.792 1490.28 629.671C1490.28 632.55 1492.62 634.883 1495.51 634.883Z" fill="url(#paint33_linear)"/>
</mask>
<g mask="url(#mask16)">
<path d="M1495.51 634.883C1498.4 634.883 1500.74 632.55 1500.74 629.671C1500.74 626.792 1498.4 624.458 1495.51 624.458C1492.62 624.458 1490.28 626.792 1490.28 629.671C1490.28 632.55 1492.62 634.883 1495.51 634.883Z" fill="url(#paint34_linear)"/>
</g>
<mask id="mask17" mask-type="alpha" maskUnits="userSpaceOnUse" x="1520" y="624" width="12" height="11">
<path d="M1525.79 634.883C1528.68 634.883 1531.02 632.55 1531.02 629.671C1531.02 626.792 1528.68 624.458 1525.79 624.458C1522.9 624.458 1520.56 626.792 1520.56 629.671C1520.56 632.55 1522.9 634.883 1525.79 634.883Z" fill="url(#paint35_linear)"/>
</mask>
<g mask="url(#mask17)">
<path d="M1525.79 634.883C1528.68 634.883 1531.02 632.55 1531.02 629.671C1531.02 626.792 1528.68 624.458 1525.79 624.458C1522.9 624.458 1520.56 626.792 1520.56 629.671C1520.56 632.55 1522.9 634.883 1525.79 634.883Z" fill="url(#paint36_linear)"/>
</g>
<mask id="mask18" mask-type="alpha" maskUnits="userSpaceOnUse" x="1550" y="624" width="12" height="11">
<path d="M1556.07 634.883C1558.96 634.883 1561.3 632.55 1561.3 629.671C1561.3 626.792 1558.96 624.458 1556.07 624.458C1553.18 624.458 1550.84 626.792 1550.84 629.671C1550.84 632.55 1553.18 634.883 1556.07 634.883Z" fill="url(#paint37_linear)"/>
</mask>
<g mask="url(#mask18)">
<path d="M1556.07 634.883C1558.96 634.883 1561.3 632.55 1561.3 629.671C1561.3 626.792 1558.96 624.458 1556.07 624.458C1553.18 624.458 1550.84 626.792 1550.84 629.671C1550.84 632.55 1553.18 634.883 1556.07 634.883Z" fill="url(#paint38_linear)"/>
</g>
<mask id="mask19" mask-type="alpha" maskUnits="userSpaceOnUse" x="1581" y="624" width="11" height="11">
<path d="M1586.35 634.883C1589.24 634.883 1591.58 632.55 1591.58 629.671C1591.58 626.792 1589.24 624.458 1586.35 624.458C1583.47 624.458 1581.12 626.792 1581.12 629.671C1581.12 632.55 1583.47 634.883 1586.35 634.883Z" fill="url(#paint39_linear)"/>
</mask>
<g mask="url(#mask19)">
<path d="M1586.35 634.883C1589.24 634.883 1591.58 632.55 1591.58 629.671C1591.58 626.792 1589.24 624.458 1586.35 624.458C1583.47 624.458 1581.12 626.792 1581.12 629.671C1581.12 632.55 1583.47 634.883 1586.35 634.883Z" fill="url(#paint40_linear)"/>
</g>
<mask id="mask20" mask-type="alpha" maskUnits="userSpaceOnUse" x="1460" y="650" width="11" height="11">
<path d="M1465.23 661C1468.12 661 1470.46 658.666 1470.46 655.788C1470.46 652.909 1468.12 650.575 1465.23 650.575C1462.34 650.575 1460 652.909 1460 655.788C1460 658.666 1462.34 661 1465.23 661Z" fill="url(#paint41_linear)"/>
</mask>
<g mask="url(#mask20)">
<path d="M1465.23 661C1468.12 661 1470.46 658.666 1470.46 655.788C1470.46 652.909 1468.12 650.575 1465.23 650.575C1462.34 650.575 1460 652.909 1460 655.788C1460 658.666 1462.34 661 1465.23 661Z" fill="url(#paint42_linear)"/>
</g>
<mask id="mask21" mask-type="alpha" maskUnits="userSpaceOnUse" x="1490" y="650" width="11" height="11">
<path d="M1495.51 661C1498.4 661 1500.74 658.666 1500.74 655.788C1500.74 652.909 1498.4 650.575 1495.51 650.575C1492.62 650.575 1490.28 652.909 1490.28 655.788C1490.28 658.666 1492.62 661 1495.51 661Z" fill="url(#paint43_linear)"/>
</mask>
<g mask="url(#mask21)">
<path d="M1495.51 661C1498.4 661 1500.74 658.666 1500.74 655.788C1500.74 652.909 1498.4 650.575 1495.51 650.575C1492.62 650.575 1490.28 652.909 1490.28 655.788C1490.28 658.666 1492.62 661 1495.51 661Z" fill="url(#paint44_linear)"/>
</g>
<mask id="mask22" mask-type="alpha" maskUnits="userSpaceOnUse" x="1520" y="650" width="12" height="11">
<path d="M1525.79 661C1528.68 661 1531.02 658.666 1531.02 655.788C1531.02 652.909 1528.68 650.575 1525.79 650.575C1522.9 650.575 1520.56 652.909 1520.56 655.788C1520.56 658.666 1522.9 661 1525.79 661Z" fill="url(#paint45_linear)"/>
</mask>
<g mask="url(#mask22)">
<path d="M1525.79 661C1528.68 661 1531.02 658.666 1531.02 655.788C1531.02 652.909 1528.68 650.575 1525.79 650.575C1522.9 650.575 1520.56 652.909 1520.56 655.788C1520.56 658.666 1522.9 661 1525.79 661Z" fill="url(#paint46_linear)"/>
</g>
<mask id="mask23" mask-type="alpha" maskUnits="userSpaceOnUse" x="1550" y="650" width="12" height="11">
<path d="M1556.07 661C1558.96 661 1561.3 658.666 1561.3 655.788C1561.3 652.909 1558.96 650.575 1556.07 650.575C1553.18 650.575 1550.84 652.909 1550.84 655.788C1550.84 658.666 1553.18 661 1556.07 661Z" fill="url(#paint47_linear)"/>
</mask>
<g mask="url(#mask23)">
<path d="M1556.07 661C1558.96 661 1561.3 658.666 1561.3 655.788C1561.3 652.909 1558.96 650.575 1556.07 650.575C1553.18 650.575 1550.84 652.909 1550.84 655.788C1550.84 658.666 1553.18 661 1556.07 661Z" fill="url(#paint48_linear)"/>
</g>
<mask id="mask24" mask-type="alpha" maskUnits="userSpaceOnUse" x="1581" y="650" width="11" height="11">
<path d="M1586.35 661C1589.24 661 1591.58 658.666 1591.58 655.788C1591.58 652.909 1589.24 650.575 1586.35 650.575C1583.47 650.575 1581.12 652.909 1581.12 655.788C1581.12 658.666 1583.47 661 1586.35 661Z" fill="url(#paint49_linear)"/>
</mask>
<g mask="url(#mask24)">
<path d="M1586.35 661C1589.24 661 1591.58 658.666 1591.58 655.788C1591.58 652.909 1589.24 650.575 1586.35 650.575C1583.47 650.575 1581.12 652.909 1581.12 655.788C1581.12 658.666 1583.47 661 1586.35 661Z" fill="url(#paint50_linear)"/>
</g>
</g>
<defs>
<linearGradient id="paint0_linear" x1="611.823" y1="69.8268" x2="377.583" y2="775.635" gradientUnits="userSpaceOnUse">
<stop stop-color="#F3F7FF"/>
<stop offset="1" stop-color="#DEEEFE"/>
</linearGradient>
<linearGradient id="paint1_linear" x1="1515" y1="677.134" x2="1443.59" y2="495.33" gradientUnits="userSpaceOnUse">
<stop/>
<stop offset="1" stop-color="white"/>
</linearGradient>
<linearGradient id="paint2_linear" x1="1515" y1="677.134" x2="1443.59" y2="495.33" gradientUnits="userSpaceOnUse">
<stop stop-color="#97C3F9"/>
<stop offset="1" stop-color="#93C1F9"/>
</linearGradient>
<linearGradient id="paint3_linear" x1="1541.2" y1="666.843" x2="1469.8" y2="485.039" gradientUnits="userSpaceOnUse">
<stop/>
<stop offset="1" stop-color="white"/>
</linearGradient>
<linearGradient id="paint4_linear" x1="1541.2" y1="666.843" x2="1469.8" y2="485.039" gradientUnits="userSpaceOnUse">
<stop stop-color="#97C3F9"/>
<stop offset="1" stop-color="#93C1F9"/>
</linearGradient>
<linearGradient id="paint5_linear" x1="1567.4" y1="656.551" x2="1496" y2="474.747" gradientUnits="userSpaceOnUse">
<stop/>
<stop offset="1" stop-color="white"/>
</linearGradient>
<linearGradient id="paint6_linear" x1="1567.4" y1="656.551" x2="1496" y2="474.747" gradientUnits="userSpaceOnUse">
<stop stop-color="#97C3F9"/>
<stop offset="1" stop-color="#93C1F9"/>
</linearGradient>
<linearGradient id="paint7_linear" x1="1593.61" y1="646.259" x2="1522.21" y2="464.456" gradientUnits="userSpaceOnUse">
<stop/>
<stop offset="1" stop-color="white"/>
</linearGradient>
<linearGradient id="paint8_linear" x1="1593.61" y1="646.259" x2="1522.21" y2="464.456" gradientUnits="userSpaceOnUse">
<stop stop-color="#97C3F9"/>
<stop offset="1" stop-color="#93C1F9"/>
</linearGradient>
<linearGradient id="paint9_linear" x1="1619.81" y1="635.968" x2="1548.41" y2="454.164" gradientUnits="userSpaceOnUse">
<stop/>
<stop offset="1" stop-color="white"/>
</linearGradient>
<linearGradient id="paint10_linear" x1="1619.81" y1="635.968" x2="1548.41" y2="454.164" gradientUnits="userSpaceOnUse">
<stop stop-color="#97C3F9"/>
<stop offset="1" stop-color="#93C1F9"/>
</linearGradient>
<linearGradient id="paint11_linear" x1="1506.05" y1="680.645" x2="1434.65" y2="498.843" gradientUnits="userSpaceOnUse">
<stop/>
<stop offset="1" stop-color="white"/>
</linearGradient>
<linearGradient id="paint12_linear" x1="1506.05" y1="680.645" x2="1434.65" y2="498.843" gradientUnits="userSpaceOnUse">
<stop stop-color="#97C3F9"/>
<stop offset="1" stop-color="#93C1F9"/>
</linearGradient>
<linearGradient id="paint13_linear" x1="1532.26" y1="670.354" x2="1460.86" y2="488.551" gradientUnits="userSpaceOnUse">
<stop/>
<stop offset="1" stop-color="white"/>
</linearGradient>
<linearGradient id="paint14_linear" x1="1532.26" y1="670.354" x2="1460.86" y2="488.551" gradientUnits="userSpaceOnUse">
<stop stop-color="#97C3F9"/>
<stop offset="1" stop-color="#93C1F9"/>
</linearGradient>
<linearGradient id="paint15_linear" x1="1558.46" y1="660.062" x2="1487.06" y2="478.26" gradientUnits="userSpaceOnUse">
<stop/>
<stop offset="1" stop-color="white"/>
</linearGradient>
<linearGradient id="paint16_linear" x1="1558.46" y1="660.062" x2="1487.06" y2="478.26" gradientUnits="userSpaceOnUse">
<stop stop-color="#97C3F9"/>
<stop offset="1" stop-color="#93C1F9"/>
</linearGradient>
<linearGradient id="paint17_linear" x1="1584.67" y1="649.771" x2="1513.27" y2="467.968" gradientUnits="userSpaceOnUse">
<stop/>
<stop offset="1" stop-color="white"/>
</linearGradient>
<linearGradient id="paint18_linear" x1="1584.67" y1="649.771" x2="1513.27" y2="467.968" gradientUnits="userSpaceOnUse">
<stop stop-color="#97C3F9"/>
<stop offset="1" stop-color="#93C1F9"/>
</linearGradient>
<linearGradient id="paint19_linear" x1="1610.87" y1="639.479" x2="1539.47" y2="457.677" gradientUnits="userSpaceOnUse">
<stop/>
<stop offset="1" stop-color="white"/>
</linearGradient>
<linearGradient id="paint20_linear" x1="1610.87" y1="639.479" x2="1539.47" y2="457.677" gradientUnits="userSpaceOnUse">
<stop stop-color="#97C3F9"/>
<stop offset="1" stop-color="#93C1F9"/>
</linearGradient>
<linearGradient id="paint21_linear" x1="1497.11" y1="684.158" x2="1425.71" y2="502.354" gradientUnits="userSpaceOnUse">
<stop/>
<stop offset="1" stop-color="white"/>
</linearGradient>
<linearGradient id="paint22_linear" x1="1497.11" y1="684.158" x2="1425.71" y2="502.354" gradientUnits="userSpaceOnUse">
<stop stop-color="#97C3F9"/>
<stop offset="1" stop-color="#93C1F9"/>
</linearGradient>
<linearGradient id="paint23_linear" x1="1523.32" y1="673.866" x2="1451.91" y2="492.063" gradientUnits="userSpaceOnUse">
<stop/>
<stop offset="1" stop-color="white"/>
</linearGradient>
<linearGradient id="paint24_linear" x1="1523.32" y1="673.866" x2="1451.91" y2="492.063" gradientUnits="userSpaceOnUse">
<stop stop-color="#97C3F9"/>
<stop offset="1" stop-color="#93C1F9"/>
</linearGradient>
<linearGradient id="paint25_linear" x1="1549.52" y1="663.575" x2="1478.12" y2="481.771" gradientUnits="userSpaceOnUse">
<stop/>
<stop offset="1" stop-color="white"/>
</linearGradient>
<linearGradient id="paint26_linear" x1="1549.52" y1="663.575" x2="1478.12" y2="481.771" gradientUnits="userSpaceOnUse">
<stop stop-color="#97C3F9"/>
<stop offset="1" stop-color="#93C1F9"/>
</linearGradient>
<linearGradient id="paint27_linear" x1="1575.72" y1="653.283" x2="1504.32" y2="471.48" gradientUnits="userSpaceOnUse">
<stop/>
<stop offset="1" stop-color="white"/>
</linearGradient>
<linearGradient id="paint28_linear" x1="1575.72" y1="653.283" x2="1504.32" y2="471.48" gradientUnits="userSpaceOnUse">
<stop stop-color="#97C3F9"/>
<stop offset="1" stop-color="#93C1F9"/>
</linearGradient>
<linearGradient id="paint29_linear" x1="1601.93" y1="642.992" x2="1530.53" y2="461.188" gradientUnits="userSpaceOnUse">
<stop/>
<stop offset="1" stop-color="white"/>
</linearGradient>
<linearGradient id="paint30_linear" x1="1601.93" y1="642.992" x2="1530.53" y2="461.188" gradientUnits="userSpaceOnUse">
<stop stop-color="#97C3F9"/>
<stop offset="1" stop-color="#93C1F9"/>
</linearGradient>
<linearGradient id="paint31_linear" x1="1488.17" y1="687.67" x2="1416.77" y2="505.866" gradientUnits="userSpaceOnUse">
<stop/>
<stop offset="1" stop-color="white"/>
</linearGradient>
<linearGradient id="paint32_linear" x1="1488.17" y1="687.67" x2="1416.77" y2="505.866" gradientUnits="userSpaceOnUse">
<stop stop-color="#97C3F9"/>
<stop offset="1" stop-color="#93C1F9"/>
</linearGradient>
<linearGradient id="paint33_linear" x1="1514.37" y1="677.378" x2="1442.97" y2="495.575" gradientUnits="userSpaceOnUse">
<stop/>
<stop offset="1" stop-color="white"/>
</linearGradient>
<linearGradient id="paint34_linear" x1="1514.37" y1="677.378" x2="1442.97" y2="495.575" gradientUnits="userSpaceOnUse">
<stop stop-color="#97C3F9"/>
<stop offset="1" stop-color="#93C1F9"/>
</linearGradient>
<linearGradient id="paint35_linear" x1="1540.58" y1="667.087" x2="1469.18" y2="485.283" gradientUnits="userSpaceOnUse">
<stop/>
<stop offset="1" stop-color="white"/>
</linearGradient>
<linearGradient id="paint36_linear" x1="1540.58" y1="667.087" x2="1469.18" y2="485.283" gradientUnits="userSpaceOnUse">
<stop stop-color="#97C3F9"/>
<stop offset="1" stop-color="#93C1F9"/>
</linearGradient>
<linearGradient id="paint37_linear" x1="1566.78" y1="656.795" x2="1495.38" y2="474.992" gradientUnits="userSpaceOnUse">
<stop/>
<stop offset="1" stop-color="white"/>
</linearGradient>
<linearGradient id="paint38_linear" x1="1566.78" y1="656.795" x2="1495.38" y2="474.992" gradientUnits="userSpaceOnUse">
<stop stop-color="#97C3F9"/>
<stop offset="1" stop-color="#93C1F9"/>
</linearGradient>
<linearGradient id="paint39_linear" x1="1592.99" y1="646.504" x2="1521.58" y2="464.7" gradientUnits="userSpaceOnUse">
<stop/>
<stop offset="1" stop-color="white"/>
</linearGradient>
<linearGradient id="paint40_linear" x1="1592.99" y1="646.504" x2="1521.58" y2="464.7" gradientUnits="userSpaceOnUse">
<stop stop-color="#97C3F9"/>
<stop offset="1" stop-color="#93C1F9"/>
</linearGradient>
<linearGradient id="paint41_linear" x1="1479.23" y1="691.182" x2="1407.82" y2="509.378" gradientUnits="userSpaceOnUse">
<stop/>
<stop offset="1" stop-color="white"/>
</linearGradient>
<linearGradient id="paint42_linear" x1="1479.23" y1="691.182" x2="1407.82" y2="509.378" gradientUnits="userSpaceOnUse">
<stop stop-color="#97C3F9"/>
<stop offset="1" stop-color="#93C1F9"/>
</linearGradient>
<linearGradient id="paint43_linear" x1="1505.43" y1="680.89" x2="1434.03" y2="499.087" gradientUnits="userSpaceOnUse">
<stop/>
<stop offset="1" stop-color="white"/>
</linearGradient>
<linearGradient id="paint44_linear" x1="1505.43" y1="680.89" x2="1434.03" y2="499.087" gradientUnits="userSpaceOnUse">
<stop stop-color="#97C3F9"/>
<stop offset="1" stop-color="#93C1F9"/>
</linearGradient>
<linearGradient id="paint45_linear" x1="1531.64" y1="670.599" x2="1460.23" y2="488.795" gradientUnits="userSpaceOnUse">
<stop/>
<stop offset="1" stop-color="white"/>
</linearGradient>
<linearGradient id="paint46_linear" x1="1531.64" y1="670.599" x2="1460.23" y2="488.795" gradientUnits="userSpaceOnUse">
<stop stop-color="#97C3F9"/>
<stop offset="1" stop-color="#93C1F9"/>
</linearGradient>
<linearGradient id="paint47_linear" x1="1557.84" y1="660.307" x2="1486.44" y2="478.504" gradientUnits="userSpaceOnUse">
<stop/>
<stop offset="1" stop-color="white"/>
</linearGradient>
<linearGradient id="paint48_linear" x1="1557.84" y1="660.307" x2="1486.44" y2="478.504" gradientUnits="userSpaceOnUse">
<stop stop-color="#97C3F9"/>
<stop offset="1" stop-color="#93C1F9"/>
</linearGradient>
<linearGradient id="paint49_linear" x1="1584.04" y1="650.016" x2="1512.64" y2="468.212" gradientUnits="userSpaceOnUse">
<stop/>
<stop offset="1" stop-color="white"/>
</linearGradient>
<linearGradient id="paint50_linear" x1="1584.04" y1="650.016" x2="1512.64" y2="468.212" gradientUnits="userSpaceOnUse">
<stop stop-color="#97C3F9"/>
<stop offset="1" stop-color="#93C1F9"/>
</linearGradient>
</defs>
</svg>
