<svg width="70" height="95" viewBox="0 0 70 95" fill="none" xmlns="http://www.w3.org/2000/svg">
<g clip-path="url(#clip0)">
<path d="M67.6889 28.7668L67.8315 72.3055L67.8644 80.7267C67.8838 87.4182 61.8681 92.8643 54.4116 92.888L17.1626 93.0062C9.72263 93.0122 3.65491 87.6087 3.63545 80.8997L3.45993 28.9398C3.434 23.5238 7.39239 18.915 12.8394 17.3521L12.8341 14.5567L12.8228 13.1241L58.2108 12.9944L58.2274 17.2224C63.6823 18.7695 67.6628 23.3333 67.6889 28.7668Z" stroke="#458DFC" stroke-width="4"/>
<path d="M60.567 12.5474L60.567 12.5545L60.567 12.5616L60.5691 12.8377L58.3924 12.8359L58.3909 12.8359L55.8693 12.8358L55.8677 12.8358L53.5723 12.834L53.5708 12.834L51.0566 12.8338L48.7336 12.813L48.7247 12.8129L48.7158 12.8129L46.1942 12.8128L46.1927 12.8128L43.8973 12.811L43.8957 12.811L41.3566 12.811L41.3551 12.811L39.0423 12.8093L39.0409 12.8093L36.5269 12.8091L34.239 12.7881L34.2298 12.788L34.2207 12.788L31.6991 12.7879L31.6976 12.7879L29.4021 12.786L29.4005 12.786L26.8615 12.786L26.86 12.786L24.5472 12.7843L24.5459 12.7843L22.0416 12.784L22.0402 12.784L19.7446 12.7822L19.7431 12.7822L17.2214 12.7821L17.22 12.7821L14.907 12.7804L14.9057 12.7804L12.3839 12.7802L12.3825 12.7802L10.1737 12.7786L10.1726 12.6427L10.1669 2.7307L10.1669 2.7307L10.1668 2.71666L10.1647 2.44035L14.9003 2.44215L19.737 2.444L19.7377 2.444L22.0513 2.44571L22.0527 2.44571L24.5743 2.44584L24.5758 2.44584L26.864 2.44767L26.8713 2.44769L31.6843 2.46894L31.6843 2.46896L31.693 2.46896L34.2146 2.46908L34.2161 2.46909L36.5115 2.47093L36.513 2.47093L39.0347 2.47106L39.0362 2.47106L41.3316 2.47291L41.3331 2.47291L43.8547 2.47303L43.8562 2.47303L46.1516 2.47488L46.1532 2.47488L48.6748 2.47501L48.6763 2.47501L50.9583 2.4768L50.9717 2.47686L53.5164 2.49596L53.5164 2.496L53.5298 2.49602L55.8267 2.49786L55.8282 2.49786L58.35 2.49799L58.3513 2.49799L60.5602 2.49963L60.5611 2.61599L60.5611 2.62325L60.5644 7.6265L60.5644 7.62678L60.567 12.5474Z" fill="white" stroke="#458DFC" stroke-width="4"/>
<path d="M4.76471 39.2657L66.7258 39.0721L66.8133 66.9024L4.85217 67.096L4.76471 39.2657Z" fill="#F7F9FC" stroke="#458DFC" stroke-width="2"/>
<path d="M28.4386 50.0614L24.1062 50.078L24.0893 45.7197L18.1215 45.7492L18.1382 50.0901L13.8058 50.1067L13.8179 56.0689L18.1503 56.0523L18.1671 60.4106L24.135 60.3811L24.1183 56.0402L28.4507 56.0236L28.4386 50.0614Z" fill="url(#paint0_linear)"/>
<path d="M57.8915 51.2771L36.4193 51.3413C35.8451 51.3458 35.3716 50.8788 35.3671 50.3035L35.3632 49.8153C35.3587 49.24 35.8248 48.7656 36.399 48.7611L57.8712 48.6969C58.4454 48.6924 58.9189 49.1594 58.9234 49.7347L58.9273 50.2228C58.9318 50.7981 58.4657 51.2726 57.8915 51.2771Z" fill="url(#paint1_linear)"/>
<path opacity="0.5" d="M57.9244 57.6754L36.4522 57.7397C35.878 57.7442 35.4045 57.2771 35.4 56.7018L35.3961 56.2137C35.3916 55.6384 35.8577 55.164 36.4319 55.1595L57.9041 55.0952C58.4783 55.0907 58.9518 55.5577 58.9563 56.1331L58.9602 56.6212C58.9647 57.1965 58.4986 57.6709 57.9244 57.6754Z" fill="url(#paint2_linear)"/>
</g>
<defs>
<linearGradient id="paint0_linear" x1="25.9828" y1="47.3682" x2="15.834" y2="59.2356" gradientUnits="userSpaceOnUse">
<stop stop-color="#6CBCFC"/>
<stop offset="1" stop-color="#458DFC"/>
</linearGradient>
<linearGradient id="paint1_linear" x1="59.132" y1="49.9191" x2="33.5323" y2="50.1204" gradientUnits="userSpaceOnUse">
<stop stop-color="#6CBCFC"/>
<stop offset="1" stop-color="#458DFC"/>
</linearGradient>
<linearGradient id="paint2_linear" x1="35.3968" y1="56.504" x2="58.9582" y2="56.3188" gradientUnits="userSpaceOnUse">
<stop stop-color="#6CBCFC"/>
<stop offset="1" stop-color="#458DFC"/>
</linearGradient>
<clipPath id="clip0">
<rect width="69" height="95" fill="white" transform="translate(0.635132)"/>
</clipPath>
</defs>
</svg>
