<svg width="68" height="95" viewBox="0 0 68 95" fill="none" xmlns="http://www.w3.org/2000/svg">
<g clip-path="url(#clip0)">
<path d="M64.9697 0H2.32971C1.04143 0 0 1.02822 0 2.30017V92.7074C0 93.9794 1.04143 95.0076 2.32971 95.0076H64.9697C66.258 95.0076 67.2994 93.9794 67.2994 92.7074V2.30017C67.2917 1.02822 66.2502 0 64.9697 0Z" fill="url(#paint0_linear)"/>
<path d="M60.858 4.09766H6.43371C5.184 4.09766 4.16571 5.10303 4.16571 6.34451V81.0923C4.16571 82.3338 5.184 83.3316 6.43371 83.3316H60.858C62.1154 83.3316 63.126 82.3262 63.126 81.0923V6.34451C63.126 5.10303 62.1154 4.09766 60.858 4.09766Z" fill="white"/>
<path d="M33.6497 92.5474C35.5414 92.5474 37.0748 91.0334 37.0748 89.1657C37.0748 87.2981 35.5414 85.7841 33.6497 85.7841C31.758 85.7841 30.2246 87.2981 30.2246 89.1657C30.2246 91.0334 31.758 92.5474 33.6497 92.5474Z" fill="white"/>
<path d="M53.0357 51.015H14.256C13.2763 51.015 12.474 50.2229 12.474 49.2556C12.474 48.2883 13.2763 47.4962 14.256 47.4962H53.028C54.0077 47.4962 54.81 48.2883 54.81 49.2556C54.81 50.2229 54.0154 51.015 53.0357 51.015Z" fill="url(#paint1_linear)"/>
<path opacity="0.6" d="M46.4708 60.7641H13.608C12.9831 60.7641 12.4817 60.2614 12.4817 59.6521V59.5302C12.4817 58.9133 12.9909 58.4182 13.608 58.4182H46.4708C47.0957 58.4182 47.5971 58.9209 47.5971 59.5302V59.6521C47.6048 60.2614 47.0957 60.7641 46.4708 60.7641Z" fill="url(#paint2_linear)"/>
<path opacity="0.3" d="M40.2145 66.9562H13.5C12.9368 66.9562 12.474 66.4992 12.474 65.9432V65.6081C12.474 65.0521 12.9368 64.5951 13.5 64.5951H40.2068C40.77 64.5951 41.2328 65.0521 41.2328 65.6081V65.9432C41.2328 66.4992 40.77 66.9562 40.2145 66.9562Z" fill="url(#paint3_linear)"/>
<path opacity="0.6" d="M43.578 72.6914H13.5617C12.9677 72.6914 12.4817 72.2116 12.4817 71.6251V71.4119C12.4817 70.8254 12.9677 70.3456 13.5617 70.3456H43.578C44.172 70.3456 44.658 70.8254 44.658 71.4119V71.6251C44.658 72.204 44.172 72.6914 43.578 72.6914Z" fill="url(#paint4_linear)"/>
<path d="M33.4828 25.9916C38.0345 25.9916 41.7241 22.4119 41.7241 17.9958C41.7241 13.5797 38.0345 10 33.4828 10C28.931 10 25.2414 13.5797 25.2414 17.9958C25.2414 22.4119 28.9138 25.9916 33.4828 25.9916ZM33.4828 29.9895C27.9828 29.9895 17 32.666 17 37.9854V39.9927C17 41.0967 17.931 42 19.069 42H47.931C49.069 42 50 41.0967 50 39.9927V37.9854C49.9655 32.6827 38.9828 29.9895 33.4828 29.9895Z" fill="#539EFC"/>
</g>
<defs>
<linearGradient id="paint0_linear" x1="4.07698" y1="45.0301" x2="67.3445" y2="50.4539" gradientUnits="userSpaceOnUse">
<stop stop-color="#6CBCFC"/>
<stop offset="1" stop-color="#458DFC"/>
</linearGradient>
<linearGradient id="paint1_linear" x1="54.8137" y1="49.257" x2="12.4813" y2="49.257" gradientUnits="userSpaceOnUse">
<stop stop-color="#6CBCFC"/>
<stop offset="1" stop-color="#458DFC"/>
</linearGradient>
<linearGradient id="paint2_linear" x1="47.6026" y1="59.5878" x2="12.4813" y2="59.5878" gradientUnits="userSpaceOnUse">
<stop stop-color="#6CBCFC"/>
<stop offset="1" stop-color="#458DFC"/>
</linearGradient>
<linearGradient id="paint3_linear" x1="41.2336" y1="65.7799" x2="12.4813" y2="65.7799" gradientUnits="userSpaceOnUse">
<stop stop-color="#6CBCFC"/>
<stop offset="1" stop-color="#458DFC"/>
</linearGradient>
<linearGradient id="paint4_linear" x1="44.6574" y1="71.5124" x2="12.4813" y2="71.5124" gradientUnits="userSpaceOnUse">
<stop stop-color="#6CBCFC"/>
<stop offset="1" stop-color="#458DFC"/>
</linearGradient>
<clipPath id="clip0">
<rect width="67.2917" height="95" fill="white"/>
</clipPath>
</defs>
</svg>
