<svg width="97" height="95" viewBox="0 0 97 95" fill="none" xmlns="http://www.w3.org/2000/svg">
<g clip-path="url(#clip0)">
<path d="M59.2849 45.7215L49.7114 54.868L9.28406 93.4864C8.22272 94.5027 6.8612 95.0109 5.49969 95.0109C4.00952 95.0109 2.51936 94.4054 1.43658 93.2053C-0.69682 90.8484 -0.418085 87.1617 2.03693 85.1508L49.7114 46.2621L54.9645 41.9808L59.2849 45.7215Z" fill="url(#paint0_linear)"/>
<path d="M49.2934 55.3328L39.87 64.328L39.0016 55.0842L44.1582 50.8785L49.2934 55.3328Z" fill="#3A81D6" fill-opacity="0.8"/>
<path d="M97 31.5694C97 49.0082 82.9775 63.1495 65.6959 63.1495C54.8037 63.1495 45.2088 57.5384 39.6019 49.019C36.3107 44.0241 34.3917 38.0238 34.3917 31.5694C34.3917 14.1305 48.4143 0 65.6959 0C73.5005 0 80.6297 2.87584 86.1079 7.63287C92.7761 13.4278 97 22.0013 97 31.5694Z" fill="url(#paint1_linear)"/>
<path d="M65.6959 56.1654C79.1658 56.1654 90.0853 45.1534 90.0853 31.5694C90.0853 17.9854 79.1658 6.97339 65.6959 6.97339C52.226 6.97339 41.3065 17.9854 41.3065 31.5694C41.3065 45.1534 52.226 56.1654 65.6959 56.1654Z" fill="white"/>
<path opacity="0.06" d="M97 31.5694C97 49.0082 82.9775 63.1496 65.6959 63.1496C54.8037 63.1496 45.2088 57.5384 39.6019 49.019C74.9049 46.1216 84.2103 15.9577 86.1186 7.63287C92.7761 13.4278 97 22.0013 97 31.5694Z" fill="#1A6FB5" fill-opacity="0.5"/>
<path d="M65.6958 31.6234C68.5261 31.6234 70.8203 29.3098 70.8203 26.4556C70.8203 23.6014 68.5261 21.2877 65.6958 21.2877C62.8656 21.2877 60.5714 23.6014 60.5714 26.4556C60.5714 29.3098 62.8549 31.6234 65.6958 31.6234ZM65.6958 34.2074C62.276 34.2074 55.447 35.9372 55.447 39.3752V40.6726C55.447 41.3862 56.0259 41.97 56.7334 41.97H74.6797C75.3873 41.97 75.9662 41.3862 75.9662 40.6726V39.3752C75.9447 35.948 69.1157 34.2074 65.6958 34.2074Z" fill="url(#paint2_linear)"/>
</g>
<defs>
<linearGradient id="paint0_linear" x1="5.98457" y1="89.0113" x2="56.91" y2="43.1044" gradientUnits="userSpaceOnUse">
<stop stop-color="#67C3F3"/>
<stop offset="1" stop-color="#5A98F2"/>
</linearGradient>
<linearGradient id="paint1_linear" x1="52.7483" y1="2.23076" x2="76.7919" y2="55.8283" gradientUnits="userSpaceOnUse">
<stop stop-color="#67C3F3"/>
<stop offset="1" stop-color="#5A98F2"/>
</linearGradient>
<linearGradient id="paint2_linear" x1="58.2863" y1="29.9722" x2="76.9074" y2="38.978" gradientUnits="userSpaceOnUse">
<stop stop-color="#B0F4FF"/>
<stop offset="0.071077" stop-color="#A6F1FF"/>
<stop offset="0.2937" stop-color="#8BE8FD"/>
<stop offset="0.5209" stop-color="#78E1FD"/>
<stop offset="0.7536" stop-color="#6DDDFC"/>
<stop offset="1" stop-color="#69DCFC"/>
</linearGradient>
<clipPath id="clip0">
<rect width="97" height="95" fill="white"/>
</clipPath>
</defs>
</svg>
